<svg width="30" height="30" viewBox="0 0 30 30" fill="none" xmlns="http://www.w3.org/2000/svg">
<rect width="30" height="30" rx="8" fill="white"/>
<path d="M16.5635 17.9136V9.7615H18.8162L19.1148 6.95225H16.5635L16.5673 5.54619C16.5673 4.81349 16.637 4.4209 17.6905 4.4209H19.0988V1.61133H16.8458C14.1395 1.61133 13.1869 2.97412 13.1869 5.2659V6.95256H11.5V9.76182H13.1869V17.9136H16.5635Z" fill="#4B5E86"/>
<rect width="30" height="30" rx="8" fill="white"/>
<path d="M16.5635 23.8197V15.6589H18.8162L19.1147 12.8466H16.5635L16.5673 11.4391C16.5673 10.7056 16.637 10.3126 17.6905 10.3126H19.0988V7.5H16.8457C14.1395 7.5 13.1869 8.86425 13.1869 11.1585V12.8469H11.5V15.6592H13.1869V23.8197H16.5635Z" fill="#4B5E86"/>
</svg>
