<svg width="30" height="30" viewBox="0 0 30 30" fill="none" xmlns="http://www.w3.org/2000/svg">
<rect width="30" height="30" rx="8" fill="white"/>
<rect width="30" height="30" rx="8" fill="white"/>
<mask id="mask0" mask-type="alpha" maskUnits="userSpaceOnUse" x="0" y="0" width="30" height="30">
<path fill-rule="evenodd" clip-rule="evenodd" d="M0 15C0 6.71573 6.71573 0 15 0C23.2843 0 30 6.71573 30 15C30 23.2843 23.2843 30 15 30C6.71573 30 0 23.2843 0 15Z" fill="white"/>
</mask>
<g mask="url(#mask0)">
<path fill-rule="evenodd" clip-rule="evenodd" d="M15.0007 7C12.8281 7 12.5554 7.0095 11.702 7.04833C10.8504 7.08733 10.269 7.22217 9.76036 7.42C9.23419 7.62434 8.78785 7.89768 8.34318 8.34251C7.89818 8.78719 7.62484 9.23352 7.41984 9.75953C7.2215 10.2684 7.0865 10.8499 7.04817 11.7012C7.01 12.5546 7 12.8274 7 15.0001C7 17.1728 7.00967 17.4446 7.04833 18.2979C7.0875 19.1496 7.22234 19.731 7.42 20.2396C7.62451 20.7658 7.89784 21.2121 8.34268 21.6568C8.78719 22.1018 9.23352 22.3758 9.75936 22.5802C10.2684 22.778 10.8499 22.9128 11.7014 22.9518C12.5547 22.9907 12.8272 23.0002 14.9997 23.0002C17.1726 23.0002 17.4444 22.9907 18.2978 22.9518C19.1495 22.9128 19.7315 22.778 20.2405 22.5802C20.7665 22.3758 21.2121 22.1018 21.6567 21.6568C22.1017 21.2121 22.375 20.7658 22.58 20.2398C22.7767 19.731 22.9117 19.1495 22.9517 18.2981C22.99 17.4448 23 17.1728 23 15.0001C23 12.8274 22.99 12.5547 22.9517 11.7014C22.9117 10.8497 22.7767 10.2684 22.58 9.7597C22.375 9.23352 22.1017 8.78719 21.6567 8.34251C21.2116 7.89751 20.7666 7.62417 20.24 7.42C19.73 7.22217 19.1483 7.08733 18.2966 7.04833C17.4433 7.0095 17.1716 7 14.9983 7H15.0007ZM14.7341 8.44113H14.7342L15.0008 8.44121C17.1369 8.44121 17.39 8.44888 18.2335 8.48721C19.0135 8.52288 19.4369 8.65321 19.7189 8.76271C20.0922 8.90771 20.3584 9.08105 20.6382 9.36105C20.9182 9.64105 21.0916 9.90772 21.2369 10.2811C21.3464 10.5627 21.4769 10.9861 21.5124 11.7661C21.5507 12.6094 21.5591 12.8628 21.5591 14.9978C21.5591 17.1328 21.5507 17.3861 21.5124 18.2295C21.4767 19.0095 21.3464 19.4328 21.2369 19.7145C21.0919 20.0878 20.9182 20.3537 20.6382 20.6335C20.3582 20.9135 20.0924 21.0868 19.7189 21.2318C19.4372 21.3418 19.0135 21.4718 18.2335 21.5075C17.3902 21.5458 17.1369 21.5542 15.0008 21.5542C12.8646 21.5542 12.6115 21.5458 11.7681 21.5075C10.9881 21.4715 10.5648 21.3412 10.2826 21.2317C9.90928 21.0867 9.64262 20.9133 9.36261 20.6333C9.08261 20.3533 8.90927 20.0873 8.76394 19.7138C8.65444 19.4322 8.52394 19.0088 8.48844 18.2288C8.4501 17.3855 8.44244 17.1321 8.44244 14.9958C8.44244 12.8594 8.4501 12.6074 8.48844 11.7641C8.5241 10.9841 8.65444 10.5607 8.76394 10.2787C8.90894 9.90539 9.08261 9.63872 9.36261 9.35872C9.64262 9.07872 9.90928 8.90538 10.2826 8.76005C10.5646 8.65004 10.9881 8.52004 11.7681 8.48421C12.5061 8.45088 12.7921 8.44088 14.2832 8.43921V8.44121C14.4225 8.44099 14.5723 8.44106 14.7341 8.44113ZM18.3112 10.7293C18.3112 10.1991 18.7412 9.76962 19.2712 9.76962V9.76929C19.8012 9.76929 20.2312 10.1993 20.2312 10.7293C20.2312 11.2593 19.8012 11.6893 19.2712 11.6893C18.7412 11.6893 18.3112 11.2593 18.3112 10.7293ZM15.0006 10.8914C12.7318 10.8914 10.8924 12.7309 10.8924 14.9997C10.8924 17.2686 12.7319 19.1073 15.0008 19.1073C17.2696 19.1073 19.1085 17.2686 19.1085 14.9997C19.1085 12.7309 17.2695 10.8914 15.0006 10.8914ZM17.6674 15.0002C17.6674 13.5273 16.4734 12.3335 15.0007 12.3335C13.5279 12.3335 12.334 13.5273 12.334 15.0002C12.334 16.4729 13.5279 17.6669 15.0007 17.6669C16.4734 17.6669 17.6674 16.4729 17.6674 15.0002Z" fill="#4B5E86"/>
</g>
</svg>
