<svg width="30" height="30" viewBox="0 0 30 30" fill="none" xmlns="http://www.w3.org/2000/svg">
<rect width="30" height="30" rx="8" fill="white"/>
<path fill-rule="evenodd" clip-rule="evenodd" d="M10.8242 9.26419C10.8242 10.2449 10.086 11.0296 8.90074 11.0296H8.87902C7.73779 11.0296 7 10.2449 7 9.26419C7 8.26275 7.76026 7.5 8.92315 7.5C10.086 7.5 10.8022 8.26275 10.8242 9.26419ZM10.6003 12.4233V22.6369H7.20096V12.4233H10.6003ZM22.8594 22.6372L22.8596 16.7811C22.8596 13.6439 21.1826 12.1838 18.9457 12.1838C17.1409 12.1838 16.3328 13.1752 15.8816 13.8706V12.4239H12.4819C12.5267 13.3823 12.4819 22.6375 12.4819 22.6375H15.8816V16.9334C15.8816 16.6282 15.9037 16.3237 15.9936 16.1051C16.2393 15.4953 16.7986 14.8639 17.7378 14.8639C18.9684 14.8639 19.4603 15.8005 19.4603 17.173V22.6372H22.8594Z" fill="#4B5E86"/>
</svg>
