<svg width="253" height="508" viewBox="0 0 253 508" fill="none" xmlns="http://www.w3.org/2000/svg">
<path d="M255.5 1.93493e-05C221.947 1.78827e-05 188.723 6.56993 157.724 19.3346C126.726 32.0993 98.5596 50.8088 74.8342 74.3949C51.1088 97.981 32.2888 125.982 19.4488 156.798C6.60869 187.615 -1.79569e-05 220.644 -1.94149e-05 254C-2.08729e-05 287.356 6.60868 320.385 19.4488 351.202C32.2889 382.018 51.1088 410.019 74.8342 433.605C98.5596 457.191 126.726 475.901 157.724 488.665C188.723 501.43 221.947 508 255.5 508L255.5 385.879C238.079 385.879 220.829 382.468 204.734 375.841C188.639 369.213 174.015 359.499 161.696 347.253C149.378 335.007 139.606 320.468 132.94 304.468C126.273 288.468 122.842 271.319 122.842 254C122.842 236.681 126.273 219.532 132.94 203.532C139.606 187.532 149.378 172.993 161.696 160.747C174.015 148.501 188.639 138.787 204.734 132.159C220.829 125.532 238.079 122.121 255.5 122.121L255.5 1.93493e-05Z" fill="#BEBEBE"/>
</svg>
